<?xml version="1.0" encoding="utf-8"?>
<!-- Generator: Adobe Illustrator 24.0.1, SVG Export Plug-In . SVG Version: 6.00 Build 0)  -->
<svg version="1.1" id="Layer_1" xmlns="http://www.w3.org/2000/svg" xmlns:xlink="http://www.w3.org/1999/xlink" x="0px" y="0px"
	 width="2335.9px" height="1337px" viewBox="0 0 2335.9 1337" style="enable-background:new 0 0 2335.9 1337;" xml:space="preserve"
	>
<style type="text/css">
	.st0{fill:none;}
</style>
<path class="st0" d="M189.7,34.1c0,0,83.5,327.6,347.3,301.4s512.7-229.3,653.6-183.5s360.8,304.8,520.9,330.9
	c154.3,25.1,322.7-34.4,429.2-157.3c0,0,318,411.1,45.9,727.3c0,0-132.7,176.9-465.2,90.1s-485.9,88.1-665,144.1
	c-241.5,75.6-396.3-27.2-527.4-181.8C390.8,942.8,327.3,899,171.6,961.2c0,0-175.8-215.2-122.2-548S157.9-7.8,189.7,34.1z"/>
</svg>
