<?xml version="1.0" encoding="utf-8"?>
<!-- Generator: Adobe Illustrator 24.0.1, SVG Export Plug-In . SVG Version: 6.00 Build 0)  -->
<svg version="1.1" id="Layer_1" xmlns="http://www.w3.org/2000/svg" xmlns:xlink="http://www.w3.org/1999/xlink" x="0px" y="0px"
	 width="460.2px" height="443px" viewBox="0 0 460.2 443" style="enable-background:new 0 0 460.2 443;" xml:space="preserve">
<style type="text/css">
	.st0{fill:none;}
</style>
<path class="st0" d="M271.3,58.7l24.9,50.4c6.7,13.6,19.6,23,34.6,25.1l55.6,8.1c37.7,5.5,52.7,51.8,25.5,78.4L371.6,260
	c-10.8,10.6-15.8,25.8-13.2,40.7l9.5,55.4c6.4,37.5-33,66.2-66.7,48.4l-49.8-26.2c-13.4-7-29.4-7-42.8,0L159,404.5
	c-33.7,17.7-73.1-10.9-66.7-48.4l9.5-55.4c2.6-14.9-2.4-30.1-13.2-40.7l-40.3-39.2c-27.3-26.6-12.2-72.9,25.5-78.4l55.6-8.1
	c15-2.2,27.9-11.6,34.6-25.1l24.9-50.4C205.8,24.6,254.5,24.6,271.3,58.7z"/>
</svg>
