<svg width="87" height="146" viewBox="0 0 87 146" fill="none" xmlns="http://www.w3.org/2000/svg">
<path d="M85.7007 93C85.7007 94.2385 84.7092 95.5557 82.5628 96.8539C80.4467 98.1337 77.3514 99.304 73.4824 100.294C65.752 102.271 55.0456 103.5 43.2007 103.5C31.3559 103.5 20.6495 102.271 12.9191 100.294C9.05007 99.304 5.95474 98.1337 3.83865 96.8539C1.69225 95.5557 0.700733 94.2385 0.700733 93C0.700733 91.7615 1.69225 90.4443 3.83865 89.1461C5.95474 87.8663 9.05007 86.696 12.9191 85.7062C20.6495 83.7287 31.3559 82.5 43.2007 82.5C55.0456 82.5 65.752 83.7287 73.4824 85.7062C77.3514 86.696 80.4467 87.8663 82.5628 89.1461C84.7092 90.4443 85.7007 91.7615 85.7007 93Z" stroke="black"/>
<path d="M85.7007 107C85.7007 108.239 84.7092 109.556 82.5628 110.854C80.4467 112.134 77.3514 113.304 73.4824 114.294C65.752 116.271 55.0456 117.5 43.2007 117.5C31.3559 117.5 20.6495 116.271 12.9191 114.294C9.05007 113.304 5.95474 112.134 3.83865 110.854C1.69225 109.556 0.700733 108.239 0.700733 107C0.700733 105.761 1.69225 104.444 3.83865 103.146C5.95474 101.866 9.05007 100.696 12.9191 99.7062C20.6495 97.7287 31.3559 96.5 43.2007 96.5C55.0456 96.5 65.752 97.7287 73.4824 99.7062C77.3514 100.696 80.4467 101.866 82.5628 103.146C84.7092 104.444 85.7007 105.761 85.7007 107Z" stroke="black"/>
<path d="M85.7007 121C85.7007 122.239 84.7092 123.556 82.5628 124.854C80.4467 126.134 77.3514 127.304 73.4824 128.294C65.752 130.271 55.0456 131.5 43.2007 131.5C31.3559 131.5 20.6495 130.271 12.9191 128.294C9.05007 127.304 5.95474 126.134 3.83865 124.854C1.69225 123.556 0.700733 122.239 0.700733 121C0.700733 119.761 1.69225 118.444 3.83865 117.146C5.95474 115.866 9.05007 114.696 12.9191 113.706C20.6495 111.729 31.3559 110.5 43.2007 110.5C55.0456 110.5 65.752 111.729 73.4824 113.706C77.3514 114.696 80.4467 115.866 82.5628 117.146C84.7092 118.444 85.7007 119.761 85.7007 121Z" stroke="black"/>
<path d="M85.7007 135C85.7007 136.239 84.7092 137.556 82.5628 138.854C80.4467 140.134 77.3514 141.304 73.4824 142.294C65.752 144.271 55.0456 145.5 43.2007 145.5C31.3559 145.5 20.6495 144.271 12.9191 142.294C9.05007 141.304 5.95474 140.134 3.83865 138.854C1.69225 137.556 0.700733 136.239 0.700733 135C0.700733 133.761 1.69225 132.444 3.83865 131.146C5.95474 129.866 9.05007 128.696 12.9191 127.706C20.6495 125.729 31.3559 124.5 43.2007 124.5C55.0456 124.5 65.752 125.729 73.4824 127.706C77.3514 128.696 80.4467 129.866 82.5628 131.146C84.7092 132.444 85.7007 133.761 85.7007 135Z" stroke="black"/>
<path d="M42.9507 11.5L49.4861 32.8327L69.2007 22L58.375 43.9291L86.2007 48.007L58.375 56.5L70.2007 73.5071L52.7007 63.1814C52.7007 63.1814 49.2007 68 47.2007 83.5C45.2007 99 43.2007 130.5 43.2007 130.5C43.2007 130.5 41.2007 99 38.7007 83.5C36.2007 68 33.7007 63.1814 33.7007 63.1814L17.7007 73.5071L28.0264 56.5L0.200733 48.007L28.0264 43.9291L16.7007 22L36.9153 32.8327L42.9507 11.5Z" fill="black"/>
<path d="M43 0L47 4L43 8L39 4L43 0Z" fill="black"/>
</svg>
