<?xml version="1.0" encoding="utf-8"?>
<!-- Generator: Adobe Illustrator 24.0.1, SVG Export Plug-In . SVG Version: 6.00 Build 0)  -->
<svg version="1.1" id="Layer_1" xmlns="http://www.w3.org/2000/svg" xmlns:xlink="http://www.w3.org/1999/xlink" x="0px" y="0px"
	 width="130.5px" height="36.7px" viewBox="0 0 130.5 36.7" style="enable-background:new 0 0 130.5 36.7;" xml:space="preserve">
<style type="text/css">
	.st0{fill:none;stroke:#000000;stroke-width:2;stroke-miterlimit:10;}
</style>
<g>
	<path class="st0" d="M2.7,23.9h8.9c0,2.3,1.7,3.3,3.7,3.3c1.8,0,3.5-1,3.5-2.7c0-2-2.4-2.5-5.4-3.3c-4.6-1.1-10.3-2.5-10.3-9.7
		c0-6.2,4.5-9.7,11.9-9.7c7.5,0,11.8,3.9,11.8,10.2h-8.7c0-2-1.5-2.9-3.3-2.9c-1.6,0-3,0.7-3,2.1c0,1.8,2.4,2.4,5.3,3.1
		c4.6,1.2,10.6,2.7,10.6,9.9c0,6.9-5.3,10.4-12.5,10.4C7.7,34.8,2.7,30.7,2.7,23.9z"/>
	<path class="st0" d="M36.6,13.9h8.7V34h-8.7V13.9z"/>
	<path class="st0" d="M36.6,2.6h8.7v8.1h-8.7V2.6z"/>
	<path class="st0" d="M87.9,17.3c0,10.3-6.7,17.6-16.5,17.6c-9.6,0-16.7-6.9-16.7-16.5c0-9.6,7-16.5,16.6-16.5
		c8.2,0,14.9,5.1,16.3,12.5h-9.1c-1.1-2.6-3.9-4.3-7.1-4.3c-4.7,0-7.9,3.4-7.9,8.4c0,5,3.1,8.4,7.9,8.4c3.3,0,6.1-1.6,7.1-4h-7.8
		v-5.5H87.9z"/>
	<path class="st0" d="M127.7,2.6V34h-7.2l-12.4-17v17h-8.4V2.6h7.6l12,16.5V2.6H127.7z"/>
</g>
</svg>
