<svg width="97" height="26" viewBox="0 0 97 26" fill="none" xmlns="http://www.w3.org/2000/svg">
<path d="M0 17.4H6.90225C6.90225 19.175 8.25323 20.025 9.77615 20.025C11.1762 20.025 12.5272 19.275 12.5272 17.925C12.5272 16.375 10.6359 15.925 8.32692 15.35C4.78982 14.45 0.319321 13.35 0.319321 7.7C0.319321 2.825 3.83186 0.0500031 9.57964 0.0500031C15.4011 0.0500031 18.7663 3.1 18.7663 8.125H12.0114C12.0114 6.55 10.8569 5.825 9.48139 5.825C8.27779 5.825 7.14789 6.35 7.14789 7.5C7.14789 8.9 8.99012 9.375 11.2745 9.95C14.8607 10.9 19.5277 12.1 19.5277 17.75C19.5277 23.15 15.4502 25.975 9.80071 25.975C3.85642 26 0 22.775 0 17.4Z" fill="white"/>
<path d="M26.2581 9.47501H33.0375V25.375H26.2581V9.47501Z" fill="white"/>
<path d="M26.2581 0.625H33.0375V7.025H26.2581V0.625Z" fill="white"/>
<path d="M66.0994 12.15C66.0994 20.25 60.892 26 53.2775 26C45.8348 26 40.3081 20.55 40.3081 13.025C40.3081 5.5 45.7366 0 53.2283 0C59.6148 0 64.8222 4.05 65.8538 9.825H58.8287C57.9445 7.75 55.7829 6.4 53.302 6.4C49.6667 6.4 47.2104 9.075 47.2104 13.025C47.2104 16.95 49.6175 19.625 53.302 19.625C55.8566 19.625 58.0427 18.375 58.8287 16.45H52.7862V12.15H66.0994Z" fill="white"/>
<path d="M97.0001 0.625V25.375H91.4488L81.7955 11.95V25.375H75.3108V0.625H81.1814L90.5154 13.625V0.625H97.0001Z" fill="white"/>
</svg>
